<svg id="a2e52e35-0cba-4dc0-9f8e-ee9f255a990c" data-name="Layer 1" xmlns="http://www.w3.org/2000/svg" viewBox="0 0 250 300"><defs><style>.fb24ae76-2ac6-4fd3-8150-21ad417e3131{fill:#ff8d41;}.ab7b8333-449a-4086-a0d0-6b33024408c1{fill:#1c273d;}</style></defs><title>pms</title><path class="fb24ae76-2ac6-4fd3-8150-21ad417e3131" d="M159.94,105.36A34.67,34.67,0,1,1,125.27,70.7,34.67,34.67,0,0,1,159.94,105.36Z"/><path class="fb24ae76-2ac6-4fd3-8150-21ad417e3131" d="M130,11.21c-1.55-.07-3.11-.11-4.69-.11s-3.14,0-4.69.11C49.35,14.61,9.89,95.86,48.76,155.65l15.67,24.1V105.36a60.83,60.83,0,1,1,19,44.23v59.46l5.32,8.18,1.31,2,35.16,54.07,35.12-54,1.31-2,40.08-61.64C240.65,95.86,201.19,14.61,130,11.21Zm-17,174.51h1.49l10.85,18.76,10.86-18.76h1.45l0,24.27h-1.74l0-20.77-10.16,17.55h-.87l-10.16-17.48V210h-1.73Zm20.18,53.36a6.53,6.53,0,0,1-2.93,2.33,12.25,12.25,0,0,1-4.86.86,14,14,0,0,1-5.08-.92,9.8,9.8,0,0,1-3.76-2.37l.8-1.32a9.24,9.24,0,0,0,3.45,2.2,12.27,12.27,0,0,0,4.56.85,8.65,8.65,0,0,0,5.23-1.32,4.07,4.07,0,0,0,1.77-3.43,3.62,3.62,0,0,0-.93-2.6,6.23,6.23,0,0,0-2.33-1.49,30.92,30.92,0,0,0-3.74-1.08,33.9,33.9,0,0,1-4.28-1.28,6.79,6.79,0,0,1-2.74-1.92,5.11,5.11,0,0,1-1.13-3.49,5.87,5.87,0,0,1,.94-3.24,6.32,6.32,0,0,1,2.86-2.34,11.64,11.64,0,0,1,4.8-.87,13.6,13.6,0,0,1,4,.59,11.57,11.57,0,0,1,3.37,1.6l-.66,1.42a11.31,11.31,0,0,0-3.21-1.53,12.34,12.34,0,0,0-3.45-.52,8.21,8.21,0,0,0-5.1,1.35,4.24,4.24,0,0,0-1.73,3.51,3.62,3.62,0,0,0,.93,2.6,6.23,6.23,0,0,0,2.33,1.49,33.26,33.26,0,0,0,3.78,1.11,36.48,36.48,0,0,1,4.26,1.28,7,7,0,0,1,2.72,1.89,4.92,4.92,0,0,1,1.13,3.42A5.79,5.79,0,0,1,133.11,239.08Z"/><path class="fb24ae76-2ac6-4fd3-8150-21ad417e3131" d="M202.21,225.88a207.82,207.82,0,0,0-40.51-8.59,322,322,0,0,0-72.9-.06,208.06,208.06,0,0,0-41,8.65c-21,7-32.58,16.5-32.58,26.7s11.57,19.68,32.58,26.69C68.43,286.17,95.85,290,125,290s56.57-3.8,77.21-10.7c21-7,32.57-16.49,32.57-26.69S223.22,232.9,202.21,225.88Zm-.68,51.36c-20.42,6.82-47.6,10.58-76.53,10.58s-56.1-3.76-76.52-10.58c-19.77-6.6-31.11-15.59-31.11-24.66s11.34-18.06,31.11-24.66a206.56,206.56,0,0,1,41.63-8.67,319.24,319.24,0,0,1,70.28.06,205.22,205.22,0,0,1,41.14,8.61c19.77,6.6,31.11,15.59,31.11,24.66S221.3,270.64,201.53,277.24Z"/><path class="fb24ae76-2ac6-4fd3-8150-21ad417e3131" d="M159.94,105.36A34.67,34.67,0,1,1,125.27,70.7,34.67,34.67,0,0,1,159.94,105.36Z"/><path class="fb24ae76-2ac6-4fd3-8150-21ad417e3131" d="M130,11.21c-1.55-.07-3.11-.11-4.69-.11s-3.14,0-4.69.11C49.35,14.61,9.89,95.86,48.76,155.65l15.67,24.1V105.36a60.83,60.83,0,1,1,19,44.23v59.46l5.32,8.18,1.31,2,35.16,54.07,35.12-54,1.31-2,40.08-61.64C240.65,95.86,201.19,14.61,130,11.21Zm-17,174.51h1.49l10.85,18.76,10.86-18.76h1.45l0,24.27h-1.74l0-20.77-10.16,17.55h-.87l-10.16-17.48V210h-1.73Zm20.18,53.36a6.53,6.53,0,0,1-2.93,2.33,12.25,12.25,0,0,1-4.86.86,14,14,0,0,1-5.08-.92,9.8,9.8,0,0,1-3.76-2.37l.8-1.32a9.24,9.24,0,0,0,3.45,2.2,12.27,12.27,0,0,0,4.56.85,8.65,8.65,0,0,0,5.23-1.32,4.07,4.07,0,0,0,1.77-3.43,3.62,3.62,0,0,0-.93-2.6,6.23,6.23,0,0,0-2.33-1.49,30.92,30.92,0,0,0-3.74-1.08,33.9,33.9,0,0,1-4.28-1.28,6.79,6.79,0,0,1-2.74-1.92,5.11,5.11,0,0,1-1.13-3.49,5.87,5.87,0,0,1,.94-3.24,6.32,6.32,0,0,1,2.86-2.34,11.64,11.64,0,0,1,4.8-.87,13.6,13.6,0,0,1,4,.59,11.57,11.57,0,0,1,3.37,1.6l-.66,1.42a11.31,11.31,0,0,0-3.21-1.53,12.34,12.34,0,0,0-3.45-.52,8.21,8.21,0,0,0-5.1,1.35,4.24,4.24,0,0,0-1.73,3.51,3.62,3.62,0,0,0,.93,2.6,6.23,6.23,0,0,0,2.33,1.49,33.26,33.26,0,0,0,3.78,1.11,36.48,36.48,0,0,1,4.26,1.28,7,7,0,0,1,2.72,1.89,4.92,4.92,0,0,1,1.13,3.42A5.79,5.79,0,0,1,133.11,239.08Z"/><path class="ab7b8333-449a-4086-a0d0-6b33024408c1" d="M159.94,105.36A34.67,34.67,0,1,1,125.27,70.7,34.67,34.67,0,0,1,159.94,105.36Z"/><path class="fb24ae76-2ac6-4fd3-8150-21ad417e3131" d="M159.94,105.36A34.67,34.67,0,1,1,125.27,70.7,34.67,34.67,0,0,1,159.94,105.36Z"/></svg>